# xmcd
#
# Track frame offsets:
#	150
#	13397
#	24690
#	45771
#	58060
#	70127
#	84745
#	100991
#	117354
#	130372
#	148741
#	151322
#	165137
#	181642
#	194925
#	206371
#	227342
#	239614
#	251706
#	266296
#	282529
#	295631
#	314041
#	316467
#	330338
#
# Disc length: 4605 seconds
#
# Revision: 0
# Processed by: cddbd v1.5.2PL0 Copyright (c) Steve Scherf et al.
# Submitted via: audiograbber 1.83.01
#
DISCID=6c11fb19
DTITLE=Jan De Smet - Wat Hebben We Vandaag (Niet) Op School Geleerd
DYEAR=2010
DGENRE=Varieté
TTITLE0=Beer In De Weer
TTITLE1=In De Boekhandel
TTITLE2=Kattekwaad
TTITLE3=Emma, Robbe En Anaïs
TTITLE4=Mijn Eigen Grootvader
TTITLE5=Dynastie-Rap
TTITLE6=De Schat Van De Farao
TTITLE7=Ruimtevaarder
TTITLE8=Kimberley
TTITLE9=Als Een Cowboy
TTITLE10=Kom Sta Vrienden
TTITLE11=Opruimen
TTITLE12=Kriebel Kriebel Kriebel
TTITLE13=Beer In De Weer [Zing Ze Zelf Versie]
TTITLE14=In De Boekhandel [Zing Ze Zelf Versie]
TTITLE15=Kattekwaad [Zing Ze Zelf Versie]
TTITLE16=Emma, Robbe En Anaïs [Zing Ze Zelf Versie]
TTITLE17=Mijn Eigen Grootvader [Zing Ze Zelf Versie]
TTITLE18=Dynastie-Rap [Zing Ze Zelf Versie]
TTITLE19=De Schat Van De Farao [Zing Ze Zelf Versie]
TTITLE20=Kimberley [Zing Ze Zelf Versie]
TTITLE21=Als Een Cowboy [Zing Ze Zelf Versie]
TTITLE22=Kom Sta Vrienden [Zing Ze Zelf Versie]
TTITLE23=Opruimen [Zing Ze Zelf Versie]
TTITLE24=Kriebel Kriebel Kriebel [Zing Ze Zelf Versie]
EXTD=
EXTT0=
EXTT1=
EXTT2=
EXTT3=
EXTT4=
EXTT5=
EXTT6=
EXTT7=
EXTT8=
EXTT9=
EXTT10=
EXTT11=
EXTT12=
EXTT13=
EXTT14=
EXTT15=
EXTT16=
EXTT17=
EXTT18=
EXTT19=
EXTT20=
EXTT21=
EXTT22=
EXTT23=
EXTT24=
PLAYORDER=
